<svg xmlns="http://www.w3.org/2000/svg" width="462" height="66.35"><g data-name="Logo Kerkomroep.nl"><path fill="#1e2c25" d="M103.216 17.327h6.221v15.726l14.6-15.726h8.371l-17.542 17.26 18.5 18.955h-8.427l-15.5-16.916v16.913h-6.223z" data-name="Path 87"/><path fill="#1e2c25" d="M134.05 38.994c0-7.752 2.943-14.822 14.488-14.822 10.7 0 13.694 8.148 12.957 17.257h-21.161c.341 4.982 2.832 7.863 8.037 7.863 4.808 0 6.339-2.317 6.9-4.641h6.339c-.508 4.92-3.9 9.276-13.013 9.276-11.656 0-14.543-7.188-14.543-14.94Zm21.217-2.373v-.111c.056-3.959-1.809-7.64-7.3-7.64s-7.3 3.507-7.578 7.752Z" data-name="Path 88"/><path fill="#1e2c25" d="M167.033 24.571h3.229l1.413 4.015c1.754-3.737 5.149-4.753 10.3-4.412v5.261c-5.943-.849-8.879 2.039-8.879 8.823v15.274h-6.054V24.564Z" data-name="Path 89"/><path fill="#1e2c25" d="M185.759 13.534h6.054v22.41l10.918-11.37h8.434l-14.766 13.691 15.9 15.274h-8.26L191.82 40.526v13.013h-6.054v-40Z" data-name="Path 90"/><path fill="#1e2c25" d="M214.101 39.058c0-7.641 3-14.877 14.369-14.877s14.369 7.244 14.369 14.877-3.11 14.877-14.425 14.877-14.313-7.187-14.313-14.877m14.314 9.958c6.792 0 8.26-4.356 8.26-9.958s-1.357-9.958-8.2-9.958-8.2 4.53-8.2 9.958 1.468 9.958 8.148 9.958Z" data-name="Path 91"/><path fill="#1e2c25" d="M248.156 24.571h3.284l1.357 3.737c.9-1.865 3.507-4.133 8.886-4.133 4.3 0 6.736 1.642 7.981 4.467.849-2.039 3.507-4.467 9-4.467 7.919 0 9.561 5.546 9.561 12.338v17.028h-6.109v-17.37c0-4.078-.738-6.9-5.379-6.9s-5.49 2.77-5.49 6.9V53.54h-6.11V36.171c0-4.078-.738-6.9-5.372-6.9s-5.546 2.77-5.546 6.9V53.54h-6.054V24.571Z" data-name="Path 92"/><path fill="#1e2c25" d="M294.208 24.571h3.229l1.413 4.015c1.754-3.737 5.149-4.753 10.3-4.412v5.261c-5.943-.849-8.879 2.039-8.879 8.823v15.274h-6.054V24.564Z" data-name="Path 93"/><path fill="#1e2c25" d="M311.806 39.058c0-7.641 3-14.877 14.369-14.877s14.369 7.244 14.369 14.877-3.11 14.877-14.425 14.877-14.313-7.187-14.313-14.877m14.314 9.958c6.792 0 8.26-4.356 8.26-9.958s-1.357-9.958-8.2-9.958-8.2 4.53-8.2 9.958 1.46 9.958 8.14 9.958" data-name="Path 94"/><path fill="#1e2c25" d="M344.839 38.994c0-7.752 2.943-14.822 14.488-14.822 10.7 0 13.694 8.148 12.957 17.257h-21.161c.336 4.985 2.836 7.865 8.036 7.865 4.808 0 6.339-2.317 6.9-4.641h6.339c-.508 4.92-3.9 9.276-13.013 9.276-11.656 0-14.543-7.188-14.543-14.94Zm21.22-2.371v-.111c.056-3.959-1.809-7.64-7.3-7.64s-7.3 3.507-7.578 7.752Z" data-name="Path 95"/><path fill="#1e2c25" d="M377.822 24.571h3.284l1.246 4.133c1.127-1.983 4.245-4.523 11.148-4.523 9.505 0 12.338 7.014 12.338 14.94s-2.658 14.822-12.219 14.822c-5.713 0-8.6-2.039-9.846-3.959v14.877h-5.943V24.578Zm13.868 24.327c6.673 0 8.093-3.959 8.093-9.791s-1.413-9.958-7.919-9.958-8.148 3.959-8.148 9.958c0 5.657 1.134 9.791 7.981 9.791Z" data-name="Path 96"/><path fill="#1e2c25" d="M409.734 50.317c0-3 1.754-3.681 4.412-3.681s4.3.682 4.3 3.681-1.754 3.618-4.3 3.618-4.412-.737-4.412-3.618" data-name="Path 97"/><path fill="#1e2c25" d="M423.366 24.571h3.284l1.357 4.071c.96-1.983 4.015-4.467 10.584-4.467 9.505 0 11.37 5.546 11.37 13.75V53.54h-6V37.416c0-5.149-.9-8.2-7.07-8.2s-7.466 3-7.466 8.2v16.123h-6.054V24.571Z" data-name="Path 98"/><path fill="#1e2c25" d="M455.946 13.534h6.05v40h-6.05Z" data-name="Path 99"/><path fill="#81ab4e" d="m24.932 57.162 8.517-22.427a1.066 1.066 0 0 1 1.99 0l8.518 22.427a24.619 24.619 0 1 0-19.011 0Z" data-name="Path 100"/><path fill="#81ab4e" d="m21.446 66.35 1.44-3.785a30.4 30.4 0 1 1 23.116 0l1.44 3.785a34.448 34.448 0 1 0-25.99 0Z" data-name="Path 101"/></g></svg>
