<svg xmlns="http://www.w3.org/2000/svg" viewBox="0 0 1483.87 255.18"><g id="Laag_2" data-name="Laag 2"><g id="Laag_1-2" data-name="Laag 1"><path d="M1251.66,151.12a19.33,19.33,0,1,1-19.46,19.33,19.25,19.25,0,0,1,19.46-19.33" style="fill:#008972"/><path d="M238.56,111.54c-.92-14.07-11.57-24.85-28.93-24.85-18,0-30.11,10.52-31.55,24.85ZM265,177.94c-12.23,7-29.19,11.84-47.6,11.84-44.7,0-73.37-26.43-73.37-65.75,0-38.65,27.35-65.74,64.82-65.74,38.79,0,68.25,29.19,60,75.87H177.55c3.42,17.62,19.2,26,40,26a100,100,0,0,0,42.74-9.6Z" style="fill:#008972"/><path d="M328.37,78.14C334.81,65,347,58.29,361.24,58.29a51.13,51.13,0,0,1,16.43,2.89L375,91.29A47.38,47.38,0,0,0,359.4,88.4c-14.86,0-30.51,8-30.51,34.06v64.69H295.1V60.92h32.61Z" style="fill:#008972"/><polygon points="431.19 107.07 450.91 107.07 479.31 60.92 516.78 60.92 477.47 122.06 524.94 187.15 485.23 187.15 449.86 136.26 431.19 136.26 431.19 187.15 397.53 187.15 397.53 2.01 431.19 2.01 431.19 107.07" style="fill:#008972"/><path d="M585.55,88.93v51.93c0,13.15,7.36,18.94,18.67,18.94a84.65,84.65,0,0,0,21.44-3l3.15,28c-7.76,3-20.25,5-30.5,5-27.75,0-46.42-14.34-46.42-44.05V88.93h-21.3v-28H552V20.42h32.74v40.5h36.56v28Z" style="fill:#008972"/><rect x="647.75" y="60.92" width="33.79" height="126.23" style="fill:#008972"/><path d="M714.28,61.05h33.79V193.72c0,31.69-19.07,48.65-46.55,48.65-11,0-20-2.37-24.59-4.73l3.16-27.09A52.2,52.2,0,0,0,696,213.18c11.44,0,18.28-5.92,18.28-21.7Z" style="fill:#008972"/><path d="M841.16,88.53C821,88.53,807,103.39,807,123.77c0,20,14.06,35.76,34.18,35.76,19.86,0,34.32-15.77,34.32-35.76S861,88.53,841.16,88.53M773.05,123.9c0-38.39,25.38-65.61,61.15-65.61,20.24,0,33.26,7.36,41.67,17.88V1.88H909V187.14H875.87l-.65-13.4c-8.42,9.72-22.49,16-41,16-35.77,0-61.15-27.75-61.15-65.88" style="fill:#008972"/><path d="M1028.4,111.54c-.92-14.07-11.57-24.85-28.93-24.85-18,0-30.11,10.52-31.55,24.85Zm26.43,66.4c-12.23,7-29.19,11.84-47.6,11.84-44.71,0-73.37-26.43-73.37-65.75,0-38.65,27.35-65.74,64.82-65.74,38.79,0,68.24,29.19,60,75.87H967.39c3.42,17.62,19.2,26,40,26a100,100,0,0,0,42.73-9.6Z" style="fill:#008972"/><path d="M1206.43,107.86v79.29h-33.79V116.54c0-17.49-11.31-27-26-27s-28,9.47-28,27v70.61h-33.66V60.92H1117l.66,14.59c6.57-8.81,20.12-17.22,38.92-17.22,29.19,0,49.83,19.2,49.83,49.57" style="fill:#008972"/><path d="M1419.57,107.86v79.29h-33.79V116.54c0-17.49-11.31-27-26-27s-28,9.47-28,27v70.61h-33.67V60.92h32.09l.66,14.59c6.57-8.81,20.11-17.22,38.91-17.22,29.19,0,49.84,19.2,49.84,49.57" style="fill:#008972"/><rect x="1450.21" y="2.01" width="33.66" height="185.13" style="fill:#008972"/><rect y="2.01" width="33.66" height="185.13" style="fill:#008972"/><polygon points="138.07 0 46.08 95 46.08 125.78 167.42 255.18 181.09 239.89 75.72 112.16 151.74 15.29 138.07 0" style="fill:#98cc9e"/><path d="M711.92,23.05c0-11.43,7.88-19.46,19.32-19.46s19.46,7.89,19.46,19.46-8,19.33-19.46,19.33-19.32-7.89-19.32-19.33" style="fill:#008972"/><path d="M645.38,23.05c0-11.43,7.89-19.46,19.33-19.46s19.46,7.89,19.46,19.46-8,19.33-19.46,19.33-19.33-7.89-19.33-19.33" style="fill:#008972"/></g></g></svg>